<svg width="21" height="20" viewBox="0 0 21 20" fill="none" xmlns="http://www.w3.org/2000/svg">
<g clip-path="url(#clip0_2002_1333)">
<path fill-rule="evenodd" clip-rule="evenodd" d="M9.9107 1.91076C10.2361 1.58533 10.7638 1.58533 11.0892 1.91076L15.2559 6.07743C15.5813 6.40287 15.5813 6.93051 15.2559 7.25594C14.9304 7.58138 14.4028 7.58138 14.0774 7.25594L11.3333 4.51186V12.5C11.3333 12.9603 10.9602 13.3334 10.5 13.3334C10.0397 13.3334 9.66663 12.9603 9.66663 12.5V4.51186L6.92255 7.25594C6.59711 7.58138 6.06947 7.58138 5.74404 7.25594C5.4186 6.93051 5.4186 6.40287 5.74404 6.07743L9.9107 1.91076ZM2.99996 11.6667C3.4602 11.6667 3.83329 12.0398 3.83329 12.5V15.8334C3.83329 16.0544 3.92109 16.2663 4.07737 16.4226C4.23365 16.5789 4.44561 16.6667 4.66663 16.6667H16.3333C16.5543 16.6667 16.7663 16.5789 16.9225 16.4226C17.0788 16.2663 17.1666 16.0544 17.1666 15.8334V12.5C17.1666 12.0398 17.5397 11.6667 18 11.6667C18.4602 11.6667 18.8333 12.0398 18.8333 12.5V15.8334C18.8333 16.4964 18.5699 17.1323 18.1011 17.6011C17.6322 18.07 16.9963 18.3334 16.3333 18.3334H4.66663C4.00358 18.3334 3.3677 18.07 2.89886 17.6011C2.43002 17.1323 2.16663 16.4964 2.16663 15.8334V12.5C2.16663 12.0398 2.53972 11.6667 2.99996 11.6667Z" fill="white" fill-opacity="0.5"/>
</g>
<defs>
<clipPath id="clip0_2002_1333">
<rect width="20" height="20" fill="white" transform="translate(0.5)"/>
</clipPath>
</defs>
</svg>
