<svg width="21" height="20" viewBox="0 0 21 20" fill="none" xmlns="http://www.w3.org/2000/svg">
<g clip-path="url(#clip0_2002_2127)">
<path fill-rule="evenodd" clip-rule="evenodd" d="M6.37896 2.63999C6.76191 2.89528 6.86538 3.41267 6.61009 3.79561L4.94342 6.29561C4.68813 6.67855 4.17074 6.78203 3.7878 6.52674L2.5378 5.6934C2.15486 5.43811 2.05138 4.92072 2.30667 4.53778C2.56197 4.15484 3.07936 4.05136 3.4623 4.30665L4.01892 4.67774L5.22334 2.87111C5.47863 2.48817 5.99602 2.38469 6.37896 2.63999ZM8.83338 5.00003C8.83338 4.53979 9.20648 4.16669 9.66671 4.16669H18C18.4603 4.16669 18.8334 4.53979 18.8334 5.00003C18.8334 5.46026 18.4603 5.83336 18 5.83336H9.66671C9.20648 5.83336 8.83338 5.46026 8.83338 5.00003ZM6.37896 7.63999C6.76191 7.89528 6.86538 8.41267 6.61009 8.79561L4.94342 11.2956C4.68813 11.6786 4.17074 11.782 3.7878 11.5267L2.5378 10.6934C2.15486 10.4381 2.05138 9.92072 2.30667 9.53778C2.56197 9.15484 3.07936 9.05136 3.4623 9.30665L4.01892 9.67774L5.22334 7.87111C5.47863 7.48817 5.99602 7.38469 6.37896 7.63999ZM8.83338 10C8.83338 9.53979 9.20648 9.16669 9.66671 9.16669H18C18.4603 9.16669 18.8334 9.53979 18.8334 10C18.8334 10.4603 18.4603 10.8334 18 10.8334H9.66671C9.20648 10.8334 8.83338 10.4603 8.83338 10ZM6.37896 12.64C6.76191 12.8953 6.86538 13.4127 6.61009 13.7956L4.94342 16.2956C4.68813 16.6786 4.17074 16.782 3.7878 16.5267L2.5378 15.6934C2.15486 15.4381 2.05138 14.9207 2.30667 14.5378C2.56197 14.1548 3.07936 14.0514 3.4623 14.3067L4.01892 14.6777L5.22334 12.8711C5.47863 12.4882 5.99602 12.3847 6.37896 12.64ZM8.83338 15C8.83338 14.5398 9.20648 14.1667 9.66671 14.1667H18C18.4603 14.1667 18.8334 14.5398 18.8334 15C18.8334 15.4603 18.4603 15.8334 18 15.8334H9.66671C9.20648 15.8334 8.83338 15.4603 8.83338 15Z" fill="white" fill-opacity="0.5"/>
</g>
<defs>
<clipPath id="clip0_2002_2127">
<rect width="20" height="20" fill="white" transform="translate(0.5)"/>
</clipPath>
</defs>
</svg>
