<svg width="21" height="20" viewBox="0 0 21 20" fill="none" xmlns="http://www.w3.org/2000/svg">
<g clip-path="url(#clip0_2002_2156)">
<path fill-rule="evenodd" clip-rule="evenodd" d="M7.58333 3.33335C6.20262 3.33335 5.08333 4.45264 5.08333 5.83335C5.08333 7.21407 6.20262 8.33335 7.58333 8.33335C8.96404 8.33335 10.0833 7.21407 10.0833 5.83335C10.0833 4.45264 8.96405 3.33335 7.58333 3.33335ZM3.41667 5.83335C3.41667 3.53217 5.28215 1.66669 7.58333 1.66669C9.88452 1.66669 11.75 3.53217 11.75 5.83335C11.75 8.13454 9.88452 10 7.58333 10C5.28215 10 3.41667 8.13454 3.41667 5.83335ZM17.1667 5.83335C17.6269 5.83335 18 6.20645 18 6.66669V8.33335H19.6667C20.1269 8.33335 20.5 8.70645 20.5 9.16669C20.5 9.62693 20.1269 10 19.6667 10H18V11.6667C18 12.1269 17.6269 12.5 17.1667 12.5C16.7064 12.5 16.3333 12.1269 16.3333 11.6667V10H14.6667C14.2064 10 13.8333 9.62693 13.8333 9.16669C13.8333 8.70645 14.2064 8.33335 14.6667 8.33335H16.3333V6.66669C16.3333 6.20645 16.7064 5.83335 17.1667 5.83335ZM1.72039 12.8871C2.50179 12.1057 3.5616 11.6667 4.66667 11.6667H10.5C11.6051 11.6667 12.6649 12.1057 13.4463 12.8871C14.2277 13.6685 14.6667 14.7283 14.6667 15.8334V17.5C14.6667 17.9603 14.2936 18.3334 13.8333 18.3334C13.3731 18.3334 13 17.9603 13 17.5V15.8334C13 15.1703 12.7366 14.5344 12.2678 14.0656C11.7989 13.5967 11.163 13.3334 10.5 13.3334H4.66667C4.00363 13.3334 3.36774 13.5967 2.8989 14.0656C2.43006 14.5344 2.16667 15.1703 2.16667 15.8334V17.5C2.16667 17.9603 1.79357 18.3334 1.33333 18.3334C0.873096 18.3334 0.5 17.9603 0.5 17.5V15.8334C0.5 14.7283 0.938987 13.6685 1.72039 12.8871Z" fill="white" fill-opacity="0.5"/>
</g>
<defs>
<clipPath id="clip0_2002_2156">
<rect width="20" height="20" fill="white" transform="translate(0.5)"/>
</clipPath>
</defs>
</svg>
