<svg width="21" height="20" viewBox="0 0 21 20" fill="none" xmlns="http://www.w3.org/2000/svg">
<g clip-path="url(#clip0_2002_2142)">
<path fill-rule="evenodd" clip-rule="evenodd" d="M10.5 1.66667C10.279 1.66667 10.067 1.75446 9.91074 1.91074C9.75446 2.06703 9.66667 2.27899 9.66667 2.5V2.64499C9.66495 3.07566 9.53733 3.49644 9.29953 3.85551C9.06173 4.21459 8.72413 4.49629 8.32828 4.66595C8.25781 4.69615 8.18368 4.71641 8.10801 4.7263C7.74831 4.85226 7.3611 4.88331 6.98417 4.81497C6.55 4.73624 6.14937 4.52927 5.83395 4.22072L5.82737 4.21429L5.77741 4.16426C5.70002 4.08677 5.60778 4.02498 5.50662 3.98304C5.40545 3.94111 5.29701 3.91952 5.1875 3.91952C5.07799 3.91952 4.96955 3.94111 4.86838 3.98304C4.76722 4.02498 4.67531 4.08645 4.59792 4.16393L4.59726 4.16458C4.51978 4.24198 4.45831 4.33388 4.41638 4.43505C4.37444 4.53621 4.35286 4.64465 4.35286 4.75417C4.35286 4.86368 4.37444 4.97212 4.41638 5.07328C4.45831 5.17445 4.51978 5.26636 4.59726 5.34375L4.65409 5.40058C4.96264 5.71601 5.16958 6.11667 5.2483 6.55083C5.32546 6.97636 5.27594 7.41497 5.10621 7.81231C4.95157 8.21777 4.68081 8.56889 4.32754 8.82157C3.96712 9.07935 3.53748 9.22274 3.09449 9.2331L3.075 9.23333H3C2.77899 9.23333 2.56703 9.32113 2.41074 9.47741C2.25446 9.63369 2.16667 9.84565 2.16667 10.0667C2.16667 10.2877 2.25446 10.4996 2.41074 10.6559C2.56703 10.8122 2.77899 10.9 3 10.9H3.14499C3.57566 10.9017 3.99644 11.0293 4.35551 11.2671C4.71334 11.5041 4.99433 11.8402 5.16418 12.2343C5.3409 12.6369 5.39342 13.0831 5.31497 13.5158C5.23624 13.95 5.02927 14.3506 4.72072 14.6661L4.71429 14.6726L4.66425 14.7226C4.58677 14.8 4.52498 14.8922 4.48304 14.9934C4.44111 15.0945 4.41952 15.203 4.41952 15.3125C4.41952 15.422 4.44111 15.5305 4.48304 15.6316C4.52498 15.7328 4.58645 15.8247 4.66393 15.9021L4.66458 15.9027C4.74198 15.9802 4.83388 16.0417 4.93505 16.0836C5.03622 16.1256 5.14465 16.1471 5.25417 16.1471C5.36368 16.1471 5.47212 16.1256 5.57328 16.0836C5.67445 16.0417 5.76636 15.9802 5.84375 15.9027L5.90058 15.8459C6.21601 15.5374 6.61667 15.3304 7.05083 15.2517C7.47635 15.1745 7.91497 15.2241 8.31231 15.3938C8.71777 15.5484 9.06889 15.8192 9.32157 16.1725C9.57935 16.5329 9.72274 16.9625 9.7331 17.4055L9.73333 17.425V17.5C9.73333 17.721 9.82113 17.933 9.97741 18.0893C10.1337 18.2455 10.3457 18.3333 10.5667 18.3333C10.7877 18.3333 10.9996 18.2455 11.1559 18.0893C11.3122 17.933 11.4 17.721 11.4 17.5V17.3583L11.4 17.355C11.4017 16.9243 11.5293 16.5036 11.7671 16.1445C12.0041 15.7866 12.3402 15.5056 12.7344 15.3358C13.137 15.1591 13.5832 15.1066 14.0158 15.185C14.45 15.2638 14.8506 15.4707 15.1661 15.7793L15.1726 15.7857L15.2226 15.8357C15.3 15.9132 15.3922 15.975 15.4934 16.017C15.5945 16.0589 15.703 16.0805 15.8125 16.0805C15.922 16.0805 16.0305 16.0589 16.1316 16.017C16.2328 15.975 16.3247 15.9136 16.4021 15.8361L16.4027 15.8354C16.4802 15.758 16.5417 15.6661 16.5836 15.5649C16.6256 15.4638 16.6471 15.3553 16.6471 15.2458C16.6471 15.1363 16.6256 15.0279 16.5836 14.9267C16.5417 14.8255 16.4802 14.7336 16.4027 14.6562L16.3459 14.5994C16.0374 14.284 15.8304 13.8833 15.7517 13.4492C15.6732 13.0165 15.7258 12.5703 15.9024 12.1677C16.0723 11.7736 16.3533 11.4375 16.7112 11.2005C17.0702 10.9627 17.491 10.8351 17.9217 10.8333L17.925 10.8333L18 10.8333C18.221 10.8333 18.433 10.7455 18.5893 10.5893C18.7455 10.433 18.8333 10.221 18.8333 10C18.8333 9.77899 18.7455 9.56703 18.5893 9.41074C18.433 9.25446 18.221 9.16667 18 9.16667H17.8583L17.855 9.16666C17.4243 9.16494 17.0036 9.03733 16.6445 8.79953C16.2854 8.56173 16.0037 8.22413 15.834 7.82828C15.8038 7.75781 15.7836 7.68368 15.7737 7.60801C15.6477 7.24831 15.6167 6.8611 15.685 6.48417C15.7638 6.05 15.9707 5.64938 16.2793 5.33395L16.2857 5.32738L16.3357 5.27741C16.4132 5.20002 16.475 5.10778 16.517 5.00662C16.5589 4.90545 16.5805 4.79701 16.5805 4.6875C16.5805 4.57799 16.5589 4.46955 16.517 4.36838C16.475 4.26722 16.4136 4.17531 16.3361 4.09792L16.3354 4.09726C16.258 4.01978 16.1661 3.95831 16.0649 3.91638C15.9638 3.87444 15.8553 3.85286 15.7458 3.85286C15.6363 3.85286 15.5279 3.87444 15.4267 3.91638C15.3256 3.95832 15.2336 4.01978 15.1562 4.09726L15.0994 4.15409C14.784 4.46264 14.3833 4.66958 13.9492 4.7483C13.5165 4.82676 13.0702 4.77423 12.6676 4.59751C12.2735 4.42767 11.9374 4.14667 11.7005 3.78885C11.4627 3.42977 11.3351 3.009 11.3333 2.57832L11.3333 2.575V2.5C11.3333 2.27899 11.2455 2.06703 11.0893 1.91074C10.933 1.75446 10.721 1.66667 10.5 1.66667ZM8.73223 0.732233C9.20107 0.263392 9.83696 0 10.5 0C11.163 0 11.7989 0.263392 12.2678 0.732233C12.7366 1.20107 13 1.83696 13 2.5V2.57292C13.0007 2.67812 13.0319 2.78087 13.09 2.8686C13.1484 2.95667 13.2312 3.02577 13.3283 3.06738L13.3365 3.0709C13.4355 3.1146 13.5453 3.12768 13.6518 3.10837C13.7571 3.08928 13.8544 3.0394 13.9314 2.96509L13.9771 2.91941C14.2093 2.68696 14.485 2.50257 14.7885 2.37676C15.092 2.25095 15.4173 2.18619 15.7458 2.18619C16.0744 2.18619 16.3997 2.25095 16.7032 2.37676C17.0067 2.50257 17.2824 2.68697 17.5146 2.91941C17.7467 3.15145 17.9309 3.42694 18.0566 3.73015C18.1824 4.03364 18.2471 4.35896 18.2471 4.6875C18.2471 5.01604 18.1824 5.34136 18.0566 5.64485C17.9308 5.9482 17.7465 6.22381 17.5143 6.45592C17.5141 6.45603 17.5144 6.45581 17.5143 6.45592L17.4683 6.50192C17.3939 6.5789 17.3441 6.67618 17.325 6.78152C17.3056 6.88801 17.3187 6.99785 17.3624 7.09686C17.3859 7.15023 17.4038 7.20577 17.4156 7.26256C17.4551 7.32066 17.5056 7.37082 17.5647 7.40996C17.6525 7.46806 17.7552 7.49934 17.8604 7.5H18C18.663 7.5 19.2989 7.76339 19.7678 8.23223C20.2366 8.70107 20.5 9.33696 20.5 10C20.5 10.663 20.2366 11.2989 19.7678 11.7678C19.2989 12.2366 18.663 12.5 18 12.5H17.9271C17.8219 12.5007 17.7191 12.5319 17.6314 12.59C17.5433 12.6484 17.4742 12.7312 17.4326 12.8283L17.4291 12.8365C17.3854 12.9355 17.3723 13.0453 17.3916 13.1518C17.4107 13.2571 17.4606 13.3544 17.5349 13.4314L17.5806 13.4771C17.5807 13.4772 17.5805 13.477 17.5806 13.4771C17.8129 13.7092 17.9975 13.9851 18.1232 14.2885C18.2491 14.592 18.3138 14.9173 18.3138 15.2458C18.3138 15.5744 18.2491 15.8997 18.1232 16.2032C17.9974 16.5067 17.813 16.7824 17.5806 17.0146L17.5813 17.0139C17.3491 17.2464 17.0733 17.4308 16.7699 17.5566C16.4664 17.6824 16.141 17.7471 15.8125 17.7471C15.484 17.7471 15.1586 17.6824 14.8551 17.5566C14.5518 17.4308 14.2762 17.2465 14.0441 17.0143C14.044 17.0141 14.0442 17.0144 14.0441 17.0143L13.9981 16.9682C13.9211 16.8939 13.8238 16.8441 13.7185 16.825C13.612 16.8056 13.5022 16.8187 13.4031 16.8624L13.395 16.866C13.2979 16.9076 13.215 16.9767 13.1567 17.0647C13.0986 17.1525 13.0673 17.2552 13.0667 17.3604V17.5C13.0667 18.163 12.8033 18.7989 12.3344 19.2678C11.8656 19.7366 11.2297 20 10.5667 20C9.90362 20 9.26774 19.7366 8.7989 19.2678C8.33006 18.7989 8.06667 18.163 8.06667 17.5V17.437C8.06271 17.331 8.02772 17.2284 7.96595 17.142C7.90272 17.0536 7.81436 16.9863 7.71235 16.9488C7.69587 16.9427 7.67959 16.9361 7.66353 16.9291C7.56451 16.8854 7.45468 16.8723 7.34818 16.8916C7.24285 16.9107 7.14556 16.9606 7.06858 17.0349L7.02292 17.0806C7.02281 17.0807 7.02302 17.0805 7.02292 17.0806C6.7908 17.3129 6.51487 17.4975 6.21152 17.6232C5.90802 17.7491 5.58271 17.8138 5.25417 17.8138C4.92563 17.8138 4.60031 17.7491 4.29682 17.6232C3.99361 17.4976 3.71812 17.3134 3.48607 17.0813C3.25363 16.8491 3.06923 16.5733 2.94342 16.2699C2.81761 15.9664 2.75286 15.641 2.75286 15.3125C2.75286 14.984 2.81761 14.6586 2.94342 14.3551C3.06923 14.0517 3.25363 13.7759 3.48607 13.5437L3.53176 13.4981C3.60607 13.4211 3.65594 13.3238 3.67504 13.2185C3.69435 13.112 3.68131 13.0022 3.63761 12.9031L3.63401 12.895C3.59239 12.7979 3.52334 12.715 3.43526 12.6567C3.34753 12.5986 3.24479 12.5673 3.13958 12.5667H3C2.33696 12.5667 1.70107 12.3033 1.23223 11.8344C0.763392 11.3656 0.5 10.7297 0.5 10.0667C0.5 9.40363 0.763392 8.76774 1.23223 8.2989C1.70107 7.83006 2.33696 7.56667 3 7.56667H3.06303C3.16903 7.56271 3.2716 7.52772 3.35796 7.46595C3.44636 7.40272 3.5137 7.31436 3.55122 7.21235C3.55728 7.19587 3.56386 7.17959 3.57095 7.16353C3.61465 7.06451 3.62768 6.95468 3.60837 6.84818C3.58927 6.74285 3.5394 6.64557 3.46508 6.56859L3.41941 6.52292C3.18696 6.29073 3.00257 6.01501 2.87676 5.71152C2.75095 5.40802 2.68619 5.08271 2.68619 4.75417C2.68619 4.42563 2.75095 4.10031 2.87676 3.79682C3.00251 3.49346 3.18679 3.21786 3.41908 2.98574C3.65119 2.75346 3.9268 2.56917 4.23015 2.44342C4.53364 2.31761 4.85896 2.25286 5.1875 2.25286C5.51604 2.25286 5.84136 2.31761 6.14485 2.44342C6.44835 2.56923 6.72407 2.75363 6.95625 2.98607L7.00192 3.03175C7.0789 3.10607 7.17618 3.15594 7.28152 3.17504C7.38801 3.19435 7.49785 3.18131 7.59686 3.13761C7.65023 3.11406 7.70577 3.09624 7.76256 3.08435C7.82066 3.04491 7.87082 2.99436 7.90996 2.93526C7.96806 2.84753 7.99934 2.74479 8 2.63958V2.5C8 1.83696 8.26339 1.20107 8.73223 0.732233ZM10.5 8.33333C9.57953 8.33333 8.83333 9.07953 8.83333 10C8.83333 10.9205 9.57953 11.6667 10.5 11.6667C11.4205 11.6667 12.1667 10.9205 12.1667 10C12.1667 9.07953 11.4205 8.33333 10.5 8.33333ZM7.16667 10C7.16667 8.15905 8.65905 6.66667 10.5 6.66667C12.3409 6.66667 13.8333 8.15905 13.8333 10C13.8333 11.8409 12.3409 13.3333 10.5 13.3333C8.65905 13.3333 7.16667 11.8409 7.16667 10Z" fill="white" fill-opacity="0.5"/>
</g>
<defs>
<clipPath id="clip0_2002_2142">
<rect width="20" height="20" fill="white" transform="translate(0.5)"/>
</clipPath>
</defs>
</svg>
